<svg width="195" height="40" viewBox="0 0 195 40" fill="none" xmlns="http://www.w3.org/2000/svg">
<path d="M35.9211 39.0709L35.8068 39.1286C34.9187 39.5136 33.8904 39.277 33.3013 38.5521L23.2485 26.213C22.7264 25.5729 21.8527 25.3074 21.0287 25.5386L5.15492 30.0007C4.22326 30.2671 3.23996 29.8953 2.76024 29.0952C2.28051 28.2952 2.42472 27.2677 3.11145 26.5928L28.5898 1.49035C29.1466 0.861134 30.0258 0.601712 30.8298 0.82932C31.6339 1.05693 32.2107 1.72845 32.2994 2.54042L37.1873 36.8688C37.3148 37.7827 36.7971 38.683 35.9211 39.0709Z" fill="#282B59"/>
<path d="M13.1698 11.0651L1.33769 23.0754" stroke="#282B59" stroke-width="2.14983" stroke-linecap="round" stroke-linejoin="round"/>
<path d="M15.6271 2.95771L3.95111 14.6363" stroke="#282B59" stroke-width="2.14983" stroke-linecap="round" stroke-linejoin="round"/>
<path d="M60.8871 30.82C54.4871 30.82 50.5831 26.468 50.5831 19.78C50.5831 13.092 54.4871 8.74 60.8871 8.74C67.2871 8.74 71.1591 13.092 71.1591 19.78C71.1591 26.468 67.2871 30.82 60.8871 30.82ZM60.8871 26.18C64.5671 26.18 66.0391 24.804 66.0391 19.78C66.0391 14.756 64.5671 13.38 60.8871 13.38C57.2071 13.38 55.7031 14.756 55.7031 19.78C55.7031 24.804 57.2071 26.18 60.8871 26.18ZM79.7041 30.5H74.9361V14.404H79.3841V16.996H79.5761C80.3761 15.364 81.8161 14.084 84.0881 14.084C87.4481 14.084 88.6961 16.58 88.6961 19.812V21.284H83.9281V20.42C83.9281 18.692 83.3841 18.148 81.8801 18.148C80.4081 18.148 79.7041 18.66 79.7041 20.42V30.5ZM96.5779 30.5H91.8099V14.404H96.2579V17.22H96.4499C97.3139 15.396 99.0419 14.084 101.858 14.084C106.05 14.084 107.842 16.868 107.842 20.292V30.5H103.042V21.252C103.042 19.012 102.306 18.212 99.8739 18.212C97.5699 18.212 96.5779 18.948 96.5779 21.38V30.5ZM116.319 30.82C113.471 30.82 111.263 29.316 111.263 26.404C111.263 23.908 113.055 22.372 116.383 21.86L121.887 21.028V20.516C121.887 18.628 120.863 18.276 118.975 18.276C117.023 18.276 116.255 18.82 116.255 20.452V20.804H111.679V20.452C111.679 16.612 114.655 14.084 119.199 14.084C123.935 14.084 126.431 16.676 126.431 20.964V30.5H121.983V28.324H121.791C120.927 29.508 119.295 30.82 116.319 30.82ZM115.839 26.02C115.839 26.884 116.511 27.172 117.919 27.172C119.871 27.172 121.887 26.66 121.887 24.164L117.279 24.868C116.287 25.028 115.839 25.348 115.839 26.02ZM135.389 30.5H130.589V9.06H137.341L141.085 19.076L142.813 24.58H143.133L144.829 19.076L148.413 9.06H155.165V30.5H150.365V20.356L150.621 16.228H150.269L149.021 20.42L145.789 29.028H139.965L136.733 20.42L135.453 16.228H135.133L135.389 20.356V30.5ZM163.879 30.82C161.031 30.82 158.823 29.316 158.823 26.404C158.823 23.908 160.615 22.372 163.943 21.86L169.447 21.028V20.516C169.447 18.628 168.423 18.276 166.535 18.276C164.583 18.276 163.815 18.82 163.815 20.452V20.804H159.239V20.452C159.239 16.612 162.215 14.084 166.759 14.084C171.495 14.084 173.991 16.676 173.991 20.964V30.5H169.543V28.324H169.351C168.487 29.508 166.855 30.82 163.879 30.82ZM163.399 26.02C163.399 26.884 164.071 27.172 165.479 27.172C167.431 27.172 169.447 26.66 169.447 24.164L164.839 24.868C163.847 25.028 163.399 25.348 163.399 26.02ZM182.629 35.876H177.829V14.404H182.277V16.772H182.437C183.301 15.044 185.157 14.084 187.557 14.084C192.101 14.084 194.469 17.38 194.469 22.468C194.469 27.524 192.005 30.82 187.653 30.82C185.093 30.82 183.525 29.764 182.789 28.388H182.629V35.876ZM182.629 23.748C182.629 25.924 183.877 26.724 186.149 26.724C188.933 26.724 189.669 25.38 189.669 22.468C189.669 19.524 188.933 18.18 186.149 18.18C183.877 18.18 182.629 18.98 182.629 21.156V23.748Z" fill="#282B59"/>
</svg>
