<svg width="1240" height="525" viewBox="0 0 1240 525" fill="none" xmlns="http://www.w3.org/2000/svg">
<path d="M379.413 97.3402H287.124V511.885H379.413V97.3402Z" fill="#2C3A86"/>
<path d="M502.256 97.3402H367.693V511.885H502.256V97.3402Z" fill="#3F7BCF"/>
<path d="M423.387 114.635H387.84V119.709H423.387V114.635Z" fill="#93C0FF"/>
<path d="M423.387 128.273H387.84V133.347H423.387V128.273Z" fill="#93C0FF"/>
<path d="M423.387 141.916H387.84V146.991H423.387V141.916Z" fill="#93C0FF"/>
<path d="M423.387 155.554H387.84V160.629H423.387V155.554Z" fill="#93C0FF"/>
<path d="M423.387 169.192H387.84V174.267H423.387V169.192Z" fill="#93C0FF"/>
<path d="M423.387 182.836H387.84V187.91H423.387V182.836Z" fill="#93C0FF"/>
<path d="M423.387 196.474H387.84V201.548H423.387V196.474Z" fill="#93C0FF"/>
<path d="M423.387 210.112H387.84V215.186H423.387V210.112Z" fill="#93C0FF"/>
<path d="M423.387 223.756H387.84V228.83H423.387V223.756Z" fill="#93C0FF"/>
<path d="M423.387 237.394H387.84V242.468H423.387V237.394Z" fill="#93C0FF"/>
<path d="M423.387 251.031H387.84V256.106H423.387V251.031Z" fill="#93C0FF"/>
<path d="M423.387 264.675H387.84V269.75H423.387V264.675Z" fill="#93C0FF"/>
<path d="M423.387 278.313H387.84V283.388H423.387V278.313Z" fill="#93C0FF"/>
<path d="M423.387 291.957H387.84V297.033H423.387V291.957Z" fill="#93C0FF"/>
<path d="M489.081 114.635H453.533V119.709H489.081V114.635Z" fill="#93C0FF"/>
<path d="M489.081 128.273H453.533V133.347H489.081V128.273Z" fill="#93C0FF"/>
<path d="M489.081 141.916H453.533V146.991H489.081V141.916Z" fill="#93C0FF"/>
<path d="M489.081 155.554H453.533V160.629H489.081V155.554Z" fill="#93C0FF"/>
<path d="M489.081 169.192H453.533V174.267H489.081V169.192Z" fill="#93C0FF"/>
<path d="M489.081 182.836H453.533V187.91H489.081V182.836Z" fill="#93C0FF"/>
<path d="M489.081 196.474H453.533V201.548H489.081V196.474Z" fill="#93C0FF"/>
<path d="M489.081 210.112H453.533V215.186H489.081V210.112Z" fill="#93C0FF"/>
<path d="M489.081 223.756H453.533V228.83H489.081V223.756Z" fill="#93C0FF"/>
<path d="M489.081 237.394H453.533V242.468H489.081V237.394Z" fill="#93C0FF"/>
<path d="M489.081 251.031H453.533V256.106H489.081V251.031Z" fill="#93C0FF"/>
<path d="M489.081 264.675H453.533V269.75H489.081V264.675Z" fill="#93C0FF"/>
<path d="M489.081 278.313H453.533V283.388H489.081V278.313Z" fill="#93C0FF"/>
<path d="M489.081 291.957H453.533V297.033H489.081V291.957Z" fill="#93C0FF"/>
<path d="M486.573 80.167H308.266V97.3402H486.573V80.167Z" fill="#1B54A3"/>
<path d="M471.331 62.9879H323.715V80.1667H471.331V62.9879Z" fill="#3F7BCF"/>
<path d="M296.382 24.6549H220.148V505.545H296.382V24.6549Z" fill="#1B54A3"/>
<path d="M228.828 24.6549H80.348V511.889H228.828V24.6549Z" fill="#2C3A86"/>
<path d="M105.417 24.6549H98.3007V505.545H105.417V24.6549Z" fill="#93C0FF"/>
<path d="M123.679 24.6549H116.563V505.545H123.679V24.6549Z" fill="#93C0FF"/>
<path d="M142.994 24.6549H135.878V505.545H142.994V24.6549Z" fill="#93C0FF"/>
<path d="M161.261 24.6549H154.145V505.545H161.261V24.6549Z" fill="#93C0FF"/>
<path d="M180.575 24.6549H173.459V505.545H180.575V24.6549Z" fill="#93C0FF"/>
<path d="M198.838 24.6549H191.722V505.545H198.838V24.6549Z" fill="#93C0FF"/>
<path d="M296.377 0H100.231C89.2491 0 80.348 8.88739 80.348 19.852V24.6488H296.377V0Z" fill="#3F7BCF"/>
<path d="M304.132 501.963H317.251V235.699H304.132V501.963Z" fill="#B6E3FF"/>
<path d="M728.948 501.963H742.068V235.699H728.948V501.963Z" fill="#B6E3FF"/>
<path d="M773.975 475.114H787.098V289.783H773.975V475.114Z" fill="#B6E3FF"/>
<path d="M773.974 289.788H279.815V475.119H773.974V289.788Z" fill="#64BDF4"/>
<path d="M233.901 502.333H247.02V236.065H233.901V502.333Z" fill="#B6E3FF"/>
<path d="M233.896 235.334H218.1V502.329H233.896V235.334Z" fill="#64BDF4"/>
<path d="M822.575 502.333H835.694V236.065H822.575V502.333Z" fill="#B6E3FF"/>
<path d="M822.566 235.334H806.77V502.329H822.566V235.334Z" fill="#64BDF4"/>
<path d="M773.307 172.56H166.686H160.711C128.043 172.56 101.316 199.246 101.316 231.862V236.364H226.081V236.057H722.597V235.334H773.312V172.56H773.307Z" fill="#85CBFF"/>
<path d="M835.694 236.364V231.862C835.694 199.246 808.968 172.56 776.299 172.56H770.325C737.656 172.56 710.925 199.246 710.925 231.862V236.364H835.694Z" fill="#B6E3FF"/>
<path d="M749.54 300.897H675.448V309.347H749.54V300.897Z" fill="white"/>
<path d="M656.016 300.897H581.924V309.347H656.016V300.897Z" fill="white"/>
<path d="M562.017 300.897H487.925V309.347H562.017V300.897Z" fill="white"/>
<path d="M468.01 300.897H393.917V309.347H468.01V300.897Z" fill="white"/>
<path d="M374.007 300.897H299.915V309.347H374.007V300.897Z" fill="white"/>
<path d="M388.192 503.834C399.62 503.834 408.883 494.587 408.883 483.179C408.883 471.771 399.62 462.52 388.192 462.52C376.769 462.52 367.506 471.771 367.506 483.179C367.506 494.587 376.769 503.834 388.192 503.834Z" fill="#10173E"/>
<path d="M471.246 483.179C471.246 494.587 461.979 503.834 450.556 503.834C439.127 503.834 429.865 494.583 429.865 483.179C429.865 471.766 439.132 462.52 450.556 462.52C461.979 462.515 471.246 471.766 471.246 483.179Z" fill="#10173E"/>
<path d="M38.68 503.834C50.1034 503.834 59.3709 494.587 59.3709 483.179C59.3709 471.771 50.1034 462.52 38.68 462.52C27.252 462.52 17.9894 471.771 17.9894 483.179C17.9894 494.587 27.252 503.834 38.68 503.834Z" fill="#10173E"/>
<path d="M121.73 483.179C121.73 494.587 112.463 503.834 101.044 503.834C89.6114 503.834 80.3535 494.583 80.3535 483.179C80.3535 471.766 89.6208 462.52 101.044 462.52C112.463 462.515 121.73 471.766 121.73 483.179Z" fill="#10173E"/>
<path d="M694.189 429.538C660.403 406.412 608.026 374.931 558.283 351.186C510.763 328.501 459.081 319.742 426.783 318.856C360.094 317.027 1.93024 318.856 1.93024 318.856V355.847C117.878 355.847 284.419 355.847 362.259 355.847C419.987 355.847 453.331 372.305 511.157 400.077C569.326 428.019 625.696 459.969 648.458 482.157C650.38 482.157 652.249 482.157 654.025 482.157C688.609 482.167 763.439 476.948 694.189 429.538Z" fill="#3F7BCF"/>
<path d="M362.259 355.847C284.419 355.847 117.878 355.847 1.93024 355.847V482.166C1.93024 482.166 511.223 482.166 648.463 482.166C625.701 459.969 569.331 428.019 511.162 400.082C453.336 372.305 419.991 355.847 362.259 355.847Z" fill="#1B54A3"/>
<path d="M710.925 474.608C710.925 474.608 632.037 467.931 594.127 463.078C558.706 458.534 1.93024 455.707 1.93024 455.707V482.166C1.93024 482.166 336.745 482.166 547.353 482.166C684.908 482.166 696.942 482.166 710.925 474.608Z" fill="#10173E"/>
<path d="M310.685 355.847H1.93024V397.104H310.685V355.847Z" fill="#10173E"/>
<path d="M335.237 346.511C331.155 345.17 326.965 348.218 326.965 352.503V386.751C326.965 408.949 326.965 419.002 326.965 419.002H353.828C353.828 419.002 354.753 370.105 353.828 359.93C353.255 353.577 342.921 349.024 335.237 346.511Z" fill="#10173E"/>
<path d="M299.914 366.106H279.148V386.84H299.914V366.106Z" fill="#93C0FF"/>
<path d="M347.12 366.106H333.48V386.84H347.12V366.106Z" fill="#93C0FF"/>
<path d="M265.682 366.106H244.916V386.84H265.682V366.106Z" fill="#93C0FF"/>
<path d="M232.563 366.106H211.797V386.84H232.563V366.106Z" fill="#93C0FF"/>
<path d="M198.392 366.106H177.626V386.84H198.392V366.106Z" fill="#93C0FF"/>
<path d="M163.693 366.106H142.932V386.84H163.693V366.106Z" fill="#93C0FF"/>
<path d="M129.527 366.106H108.761V386.84H129.527V366.106Z" fill="#93C0FF"/>
<path d="M96.4076 366.106H75.6417V386.84H96.4076V366.106Z" fill="#93C0FF"/>
<path d="M62.2362 366.106H41.4703V386.84H62.2362V366.106Z" fill="#93C0FF"/>
<path d="M31.4564 366.106H10.6951V386.84H31.4564V366.106Z" fill="#93C0FF"/>
<path d="M471.246 438.62C465.53 437.486 464.773 427.404 299.919 427.583C223.624 427.672 1.93481 427.583 1.93481 427.583V437.27C1.93481 437.27 264.381 437.27 339.408 437.27C414.435 437.27 471.246 438.62 471.246 438.62Z" fill="#10173E"/>
<path d="M592.277 357.155C553.371 331.469 527.842 327.807 508.734 332.482C501.444 334.263 484.642 341.902 482.989 348.072C482.58 349.582 483.05 351.003 484.826 352.227C498.79 361.867 547.067 388.233 583.629 406.482C598.28 413.797 610.943 414.801 621.079 413.183C638.289 410.435 648.228 400.101 648.228 400.101C648.228 400.101 627.369 380.327 592.277 357.155Z" fill="#10173E"/>
<path d="M773.317 374.307C770.367 368.634 758.117 368.601 754.576 368.53C756.783 362.861 757.178 355.786 752.067 352.804C744.153 348.204 739.451 356.166 739.451 356.166C739.451 356.166 735.501 355.776 731.489 354.67C728.516 353.845 730.146 358.609 732.166 360.039C733.744 361.15 735.411 362.083 737.14 362.88C736.426 365.318 736.431 367.963 737.375 370.533C738.779 374.331 743.819 373.787 743.819 373.787C743.819 373.787 744.176 375.376 743.894 377.153C740.09 377.378 738.638 378.251 736.304 379.699C730.428 383.343 726.952 393.776 725.876 396.434C724.43 400.031 723.73 405.263 724.711 408.293C725.815 411.673 731.795 414.787 735.435 414.824C735.402 416.423 735.383 436.646 735.393 439.296C734.519 449.86 735.853 463.659 736.201 471.781C736.482 478.294 736.055 492.576 736.003 498.742C734.364 498.719 728.004 499.356 727.253 500.566C725.712 503.042 733.354 503.187 735.538 503.356C736.694 503.497 743.636 502.962 745.426 502.573C746.497 502.343 746.985 498.944 747.088 497.204C747.525 490.208 749.399 450.441 751.837 442.925C752.814 448.294 762.871 498.329 762.871 498.981C759.959 499.436 758 499.464 756.624 500.528C755.632 501.302 756.647 502.428 757.619 502.521C761.311 502.873 770.701 502.915 771.523 502.648C772.35 502.381 772.946 497.04 772.819 495.502C772.284 488.872 771.326 480.375 770.574 475.368C770.203 472.897 769.766 438.832 770.048 433.214C771.964 433.617 777.93 433.116 778.324 430.842C779.193 425.843 779.531 386.264 773.317 374.307Z" fill="#10173E"/>
<path d="M837.132 376.469C834.558 372.497 821.453 371.227 816.409 372.704C816.409 370.865 816.221 369.196 816.437 367.429C818.63 366.903 821.651 366.73 822.67 365.243C820.284 363.232 817.837 359.228 816.047 357.45C813.666 355.097 810.828 354.679 807.334 355.275C802.886 356.034 797.85 360.808 794.896 361.98C795.784 363.527 800.819 365.211 800.889 365.243C800.232 367.569 799.978 376.028 805.699 376.755C805.168 377.894 804.426 379.957 804.346 380.239C802.782 380.478 801.251 380.586 799.682 381.228C796.46 382.546 787.634 397.785 788.959 406.783C789.316 409.202 793.44 411.561 797.756 410.632C797.771 410.9 796.075 427.311 796.934 439.633C798.569 440.182 801.519 440.107 801.519 440.107C801.519 440.107 799.114 460.79 799.02 462.581C798.339 476.09 795.901 486.227 794.074 495.929C794.262 496.257 794.525 496.562 794.83 496.857C793.98 496.932 793.135 497.059 792.327 497.204C790.589 497.523 786.948 498.151 786.173 499.91C785.835 500.669 786.15 502.142 787.122 502.329C790.396 502.967 797.897 502.648 801.227 502.095C801.965 501.973 801.871 500.716 801.894 499.155C802.848 499.066 803.679 498.794 804.229 498.292C807.16 491.76 812.815 452.284 813.67 447.356C816.333 458.605 819.838 493.275 819.842 497.57C820.152 497.931 820.486 498.217 820.833 498.465C819.232 498.723 815.572 499.614 814.553 500.313C813.285 501.185 813.821 502.948 815.305 503.093C818.799 503.445 823.807 503.257 827.254 502.629C828.912 502.329 828.001 499.774 827.597 498.69C828.273 498.4 828.908 498.072 829.42 497.72C828.217 482.373 827.663 456.218 827.099 440.829C832.759 439.812 838.541 440.107 840.711 434.302C843.581 426.715 839.166 379.61 837.132 376.469Z" fill="#10173E"/>

</svg>
