<svg width="22" height="19" viewBox="0 0 22 19" fill="none" xmlns="http://www.w3.org/2000/svg">
<path d="M20.5554 3.05192C19.327 1.51143 17.6005 0.617432 15.97 0.617432C13.8175 0.617432 12.907 1.64793 11.4115 1.64793C9.86951 1.64793 8.69801 0.620432 6.83652 0.620432C5.00803 0.620432 3.06105 1.73792 1.82655 3.64891C0.0910637 6.3399 0.388062 11.3994 3.20055 15.7088C4.20704 17.2508 5.55103 18.9848 7.30902 18.9998C8.87351 19.0148 9.31451 17.9963 11.434 17.9858C13.5535 17.9738 13.9555 19.0133 15.517 18.9968C17.2765 18.9833 18.694 17.0618 19.7004 15.5198C20.4219 14.4144 20.6904 13.8579 21.2499 12.6099C17.1805 11.0604 16.528 5.2734 20.5554 3.05192Z" fill="white"/>
</svg>
