<svg width="604" height="412" viewBox="0 0 604 412" fill="none" xmlns="http://www.w3.org/2000/svg">
<path d="M340.031 72.7645H276.604V401.543H340.031V72.7645Z" fill="#57A9F2"/>
<path d="M396.265 72.7645H332.184V401.543H396.265V72.7645Z" fill="#B6E3FF"/>
<path d="M355.724 72.7645H351.147V397.622H355.724V72.7645Z" fill="white"/>
<path d="M369.456 72.7645H364.225V397.622H369.456V72.7645Z" fill="white"/>
<path d="M382.533 72.7645H377.956V397.622H382.533V72.7645Z" fill="white"/>
<path d="M211.869 75.379H141.904V401.543H211.869V75.379Z" fill="#2C3A86"/>
<path d="M281.835 40.7363H211.869V401.543H281.835V40.7363Z" fill="#2E6ABE"/>
<path d="M211.869 63.6135H141.904V75.379H211.869V63.6135Z" fill="#1B54A3"/>
<path d="M211.869 52.5017H154.981V63.6135H211.869V52.5017Z" fill="#2C3A86"/>
<path d="M211.869 40.7363H170.021V52.5017H211.869V40.7363Z" fill="#1B54A3"/>
<path d="M266.796 57.7308H231.486V62.3063H266.796V57.7308Z" fill="white"/>
<path d="M266.796 70.8035H231.486V74.7253H266.796V70.8035Z" fill="white"/>
<path d="M266.796 83.2226H231.486V87.798H266.796V83.2226Z" fill="white"/>
<path d="M266.796 96.2953H231.486V100.217H266.796V96.2953Z" fill="white"/>
<path d="M266.796 109.368H231.486V113.29H266.796V109.368Z" fill="white"/>
<path d="M266.796 121.787H231.486V126.363H266.796V121.787Z" fill="white"/>
<path d="M266.796 134.86H231.486V138.782H266.796V134.86Z" fill="white"/>
<path d="M266.796 147.279H231.486V151.854H266.796V147.279Z" fill="white"/>
<path d="M222.331 243.363H213.831V396.314H222.331V243.363Z" fill="#B6E3FF"/>
<path d="M213.831 242.056H206.638V396.314H213.831V242.056Z" fill="#64BDF4"/>
<path d="M119.345 109.968C119.345 109.968 167.432 129.46 195.14 162.678C222.849 195.896 231.014 224.709 231.014 224.709H588.719C588.719 224.709 578.857 186.381 562.334 162.324C538.38 127.441 502.156 109.968 502.156 109.968H119.345Z" fill="#B6E3FF"/>
<path d="M119.345 122.392C119.345 122.392 166.952 142.302 195.189 175.062C220.375 204.286 224.163 224.709 224.163 224.709H579.214C579.214 224.709 571.107 189.73 554.404 165.808C537.703 141.885 502.403 122.392 502.403 122.392H119.345Z" fill="#64BDF4"/>
<path d="M502.447 109.968H119.345V122.392H502.447V109.968Z" fill="#85CBFF"/>
<path d="M539.734 171.358H465.892V198.399H539.734V171.358Z" fill="#85CBFF"/>
<path d="M547.045 171.358H473.203V198.399H547.045V171.358Z" fill="#B6E3FF"/>
<path d="M490.75 177.205H479.052V192.553H490.75V177.205Z" fill="#10173E"/>
<path d="M541.196 178.666H496.598V182.321H541.196V178.666Z" fill="#10173E"/>
<path d="M541.196 187.437H496.598V191.822H541.196V187.437Z" fill="#10173E"/>
<path d="M510.489 152.356H210.733V158.203H510.489V152.356Z" fill="white"/>
<path d="M571.173 181.59H544.853V188.898H571.173V181.59Z" fill="#B6E3FF"/>
<path d="M486.363 135.548H186.607V142.125H486.363V135.548Z" fill="white"/>
<path d="M588.718 224.709H579.214V395.725H588.718V224.709Z" fill="#B6E3FF"/>
<path d="M579.214 223.247H571.172V395.724H579.214V223.247Z" fill="#64BDF4"/>
<path d="M563.996 313.226C562.698 307.744 559.996 295.843 556.644 291.266C554.957 288.959 551.305 288.249 551.305 288.249C551.305 288.249 551 285.433 550.713 282.6C550.181 277.255 550.488 269.879 545.418 266.716C543.122 265.282 537.462 265.303 536.232 266.48C533.639 268.951 532.969 271.617 532.699 273.774C531.992 279.426 533.864 283.119 534.349 288.133C532.798 288.836 529.823 290.095 528.34 291.897C525.433 295.44 522.187 308.877 521.081 316.847C520.531 320.768 520.455 334.185 520.455 334.185C520.455 334.185 522.228 334.544 522.652 334.503C522.796 335.342 522.792 340.52 523.592 341.878C525.084 344.387 526.297 343.073 526.338 341.957C526.393 340.465 526.212 336.916 525.87 334.1C526.147 334.093 527.913 333.564 527.913 333.564L528.603 317.389L529.17 313.212C529.17 313.212 529.942 315.874 530.113 317.874C531.996 318.502 534.589 317.721 534.589 317.721C534.589 317.721 531.288 327.84 527.674 359.538C530.66 361.575 537.551 362.009 538.808 362.128C539.901 366.098 540.301 374.835 540.868 381.576C541.336 387.149 540.376 388.999 539.289 390.211C538.008 390.624 536.584 390.88 535.398 391.235C533.984 391.661 533.902 393.795 535.398 394.184C539.385 395.214 543.085 394.887 546.556 392.603C546.559 392.614 547.793 395.317 549.285 396.365C550.478 397.197 553.354 395.784 551.909 392.146C550.58 388.812 549.012 375.139 550.478 360.893C551.919 360.8 556.654 359.735 560.809 357.449C559.456 350.199 556.391 343.052 556.415 335.684C558.421 335.684 561.324 335.769 563.34 334.137C564.385 333.291 565.557 330.816 565.53 328.775C565.468 324.646 564.249 314.092 563.996 313.226Z" fill="#10173E"/>
<path d="M1365.91 392.814H-106.246V413.182H1365.91V392.814Z" fill="#10173E"/>
<path d="M438.567 370.793C438.567 385.126 426.939 396.743 412.596 396.743C398.254 396.743 386.625 385.126 386.625 370.793C386.625 356.461 398.254 344.844 412.596 344.844C426.939 344.844 438.567 356.461 438.567 370.793Z" fill="#10173E"/>
<path d="M244.34 370.793C244.34 385.126 232.712 396.743 218.369 396.743C204.026 396.743 192.398 385.126 192.398 370.793C192.398 356.461 204.026 344.844 218.369 344.844C232.716 344.844 244.34 356.461 244.34 370.793Z" fill="#10173E"/>
<path d="M501.021 319.482C497.307 282.804 493.026 252.832 486.695 232.241C480.358 211.623 480.083 200.044 448.399 200.044C405.561 200.044 153.492 200.044 60.2398 200.044C51.3596 200.044 44.0892 204.314 40.5955 215.167C139.645 215.184 339.957 215.21 351.268 215.21C366.33 215.21 364.074 253.061 364.64 297.541C364.878 316.16 365.022 342.975 365.111 368.85L494.527 368.67C494.527 368.67 504.579 354.619 501.021 319.482Z" fill="#3F7BCF"/>
<path d="M351.266 215.216C339.951 215.216 139.642 215.187 40.5919 215.17C39.1151 219.754 38.3002 225.494 38.3486 232.619C38.4859 253.852 38.3486 351.558 38.3486 351.558L58.1263 369.281L365.111 368.85C365.023 342.975 365.35 290.027 365.111 271.405C364.542 226.932 366.331 215.216 351.266 215.216Z" fill="#1B54A3"/>
<path d="M239.405 369.281C239.405 369.281 228.148 334.066 169.828 319.482C125.185 308.312 111.992 270.33 111.992 270.33L100.739 268.334C100.739 268.334 98.0604 276.697 106.287 292.229C114.51 307.757 125.064 314.428 125.064 314.428C125.064 314.428 96.4061 312.87 70.0156 292.046C57.9886 282.555 58.1177 270.33 58.1177 270.33H45.921C45.921 270.33 47.2281 295.528 56.7862 303.856C77.8307 322.177 102.506 327.176 130.139 336.895C167.718 350.117 173.399 369.284 173.399 369.284L239.405 369.281Z" fill="#93C0FF"/>
<path d="M167.755 267.322C167.755 267.322 180.549 303.67 206.508 308.358C253.136 316.784 268.992 334.07 268.992 334.07C268.992 334.07 264.26 316.784 248.928 307.156C229.485 294.951 213.153 298.747 208.041 276.816C205.257 264.878 167.755 267.322 167.755 267.322Z" fill="#93C0FF"/>
<path d="M180.952 331.485C180.952 331.485 196.618 338.545 206.237 350.564C215.86 362.577 217.929 369.64 217.929 369.64H234.165C234.165 369.64 223.642 352.217 210.715 344.105C197.789 335.994 180.952 331.485 180.952 331.485Z" fill="#1B54A3"/>
<path d="M494.525 368.671C494.525 368.671 88.2452 362.702 70.1136 362.702C51.982 362.702 38.3451 351.558 38.3451 351.558C38.3451 351.558 41.1574 369.281 68.3749 375.427C84.1906 378.994 405.903 378.537 473.515 378.566C480.983 378.569 488.093 375.492 493.214 370.059L494.525 368.671Z" fill="#10173E"/>
<path d="M378.44 319.483C378.44 319.483 378.109 335.491 391.219 340.525C404.332 345.56 422.563 348.654 422.563 348.654C422.563 348.654 424.106 337.017 412.288 330.741C400.47 324.468 378.44 319.483 378.44 319.483Z" fill="#93C0FF"/>
<path d="M501.022 319.483C501.022 319.483 494.207 326.134 490.6 334.067C486.993 342.002 485.191 348.654 485.191 348.654C485.191 348.654 499.377 345.165 501.784 341.323C502.902 329.614 501.022 319.483 501.022 319.483Z" fill="#93C0FF"/>
<path d="M128.949 270.807C128.949 270.807 128.042 284.447 146.08 298.296C157.684 307.205 174.04 310.462 174.04 310.462C174.04 310.462 152.395 292.35 146.984 281.357C141.574 270.36 141.574 270.36 141.574 270.36L128.949 270.807Z" fill="#93C0FF"/>
<path d="M479.779 373.542V369.938C479.779 363.992 474.909 359.121 468.958 359.121H432.667C426.715 359.121 421.843 363.989 421.843 369.938V373.542H479.779Z" fill="#10173E"/>
<path d="M500.201 308.878C500.201 308.878 498.965 293.536 495.303 267.913C491.64 242.293 481.173 215.158 481.173 215.158C481.173 215.158 424.28 215.2 393.42 215.158C393.662 230.277 394.836 269.266 400.533 292.223C403.244 303.157 407.583 311.054 412.593 316.781C425.107 318.267 440.281 319.476 456.87 319.476C482.484 319.483 500.201 308.878 500.201 308.878Z" fill="#10173E"/>
<path d="M393.419 215.164C393.399 215.164 393.373 215.164 393.354 215.164C386.29 215.154 375.231 217.82 375.237 230.47C375.254 249.036 376.853 277.397 377.978 295.091C378.599 304.85 386.189 312.867 396.274 314.507C400.93 315.265 406.467 316.055 412.591 316.784C407.578 311.06 403.242 303.161 400.531 292.229C394.838 269.265 393.664 230.28 393.419 215.164Z" fill="#93C0FF"/>
<path d="M208.171 313.389C208.171 313.389 211.685 323.896 223.167 329.208C241.089 337.506 250.111 359.121 250.111 359.121C250.111 359.121 250.857 343.23 246.729 335.477C243.122 328.705 235.388 324.34 228.166 322.174C218.544 319.293 208.171 313.389 208.171 313.389Z" fill="#93C0FF"/>
<path d="M158.894 229.654H99.0047V281.351H158.894V229.654Z" fill="#10173E"/>
<path d="M223.977 229.654H164.087V281.351H223.977V229.654Z" fill="#10173E"/>
<path d="M45.4284 281.351H93.8114V229.654H45.4284C45.4284 242.754 45.4284 281.351 45.4284 281.351Z" fill="#10173E"/>
<path d="M351.076 344.511L351.246 230.189C351.246 230.006 351.2 229.836 351.193 229.656H294.248V318.649C307.345 320.632 331.419 322.174 351.076 344.511Z" fill="#10173E"/>
<path d="M289.056 229.654H229.166V281.351H289.056V229.654Z" fill="#10173E"/>
<path d="M158.894 215.216H99.0047V229.656H158.894V215.216Z" fill="#93C0FF"/>
<path d="M223.977 215.216H164.087V229.656H223.977V215.216Z" fill="#93C0FF"/>
<path d="M52.4485 215.216C45.4284 215.216 45.4284 225.932 45.4284 229.506C45.4284 229.555 45.4284 229.607 45.4284 229.656H93.8114V215.216H52.4485Z" fill="#93C0FF"/>
<path d="M336.285 215.216H294.248V229.656H351.193C350.919 221.642 344.375 215.216 336.285 215.216Z" fill="#93C0FF"/>
<path d="M289.056 215.216H229.166V229.656H289.056V215.216Z" fill="#93C0FF"/>
<path d="M139.778 370.793C139.778 385.126 128.151 396.743 113.807 396.743C99.4645 396.743 87.8368 385.126 87.8368 370.793C87.8368 356.461 99.4645 344.844 113.807 344.844C128.151 344.844 139.778 356.461 139.778 370.793Z" fill="#10173E"/>
<path d="M113.807 386.486C122.48 386.486 129.51 379.459 129.51 370.795C129.51 362.127 122.48 355.103 113.807 355.103C105.135 355.103 98.1045 362.127 98.1045 370.795C98.1045 379.459 105.135 386.486 113.807 386.486Z" fill="#3F7BCF"/>
<path d="M119.219 370.794C119.219 373.78 116.798 376.201 113.808 376.201C110.818 376.201 108.398 373.777 108.398 370.794C108.398 367.808 110.823 365.387 113.808 365.387C116.798 365.387 119.219 367.808 119.219 370.794Z" fill="#10173E"/>
<path d="M329.469 370.793C329.469 385.126 317.841 396.743 303.498 396.743C289.155 396.743 277.528 385.126 277.528 370.793C277.528 356.461 289.155 344.844 303.498 344.844C317.841 344.844 329.469 356.461 329.469 370.793Z" fill="#10173E"/>
<path d="M303.497 386.486C312.169 386.486 319.2 379.459 319.2 370.795C319.2 362.127 312.169 355.103 303.497 355.103C294.825 355.103 287.794 362.127 287.794 370.795C287.794 379.459 294.825 386.486 303.497 386.486Z" fill="#3F7BCF"/>
<path d="M308.911 370.794C308.911 373.78 306.488 376.201 303.499 376.201C300.51 376.201 298.09 373.777 298.09 370.794C298.09 367.808 300.513 365.387 303.499 365.387C306.484 365.387 308.911 367.808 308.911 370.794Z" fill="#10173E"/>
<path d="M273.91 318.806C273.91 318.806 282.25 335.311 299.85 336.258C320.242 337.356 334.117 350.568 334.117 350.568C334.117 350.568 328.705 336.513 315.645 329.744C294.249 318.649 283.617 323.527 273.91 318.806Z" fill="#93C0FF"/>
</svg>
