<svg width="604" height="341" viewBox="0 0 604 341" fill="none" xmlns="http://www.w3.org/2000/svg">
<path d="M537.61 130.602C535.25 130.629 532.845 132.482 533.552 130.629C534.081 129.245 533.825 129.03 533.129 129.19C532.083 129.438 531.593 132.41 529.4 133.232C525.738 134.616 522.821 135.89 520.884 136.822C515.847 139.249 507.771 144.526 504.42 146.533C502.689 147.564 501.37 148.16 501.203 148.105C500.039 147.741 500.546 146.566 500.518 146.307C501.648 145.982 502.444 145.061 503.117 143.517C504.386 143.611 505.383 142.866 505.383 142.866C505.383 142.866 504.982 141.123 505.026 139.783C505.255 132.195 500.028 130.933 496.449 132.025C492.898 133.1 492.336 137.026 491.78 139.033C491.429 140.307 491.139 142.987 491.139 142.987C491.139 142.987 493.332 143.715 494.334 143.622C494.98 145.094 495.492 145.706 496.327 146.329C496.271 146.533 496.221 147.217 495.547 147.382C493.221 147.945 492.564 147.046 490.315 146.23C487.917 145.359 484.727 145.678 478.282 142.838C471.163 139.695 460.46 135.372 459.563 134.214C459.04 133.535 458.69 132.747 458.411 131.909C458.155 131.164 457.805 131.192 457.365 131.804C457.07 132.223 457.098 133.227 457.471 133.861C455.489 133.182 454.704 132.808 452.361 133.227C449.996 133.651 450.202 135.284 452.15 136.761C453.591 137.853 457.972 137.346 459.981 137.749C461.317 138.013 463.148 140.054 466.9 142.066C472.198 144.918 483.653 150.68 483.653 150.68C483.653 150.68 482.607 152.318 482.44 153.267C483.792 154.083 486.136 154.772 487.226 155.561C490.176 157.7 491.334 159.217 492.175 163.469C492.353 164.356 492.397 167.56 490.816 173.119C490.26 175.071 488.818 177.784 488.818 177.784C488.818 177.784 489.815 178.766 490.616 178.964C488.969 188.543 488.573 200.515 488.401 207.497H498.269C499.477 198.387 501.587 189.238 501.347 183.944C502.728 188.731 503.051 189.613 504.442 194.4C505.739 198.855 507.871 202.986 508.884 207.502H516.281C515.078 198.265 514.16 185.891 511.489 178.507C511.995 177.922 512.34 177.779 512.925 177.238C512.785 176.819 509.078 168.531 508.383 166.049C507.297 162.162 510.142 153.763 511.806 151.452C511.561 150.813 511.082 149.792 510.821 149.131C514.199 145.833 523.467 137.528 531.543 135.846C536.908 134.727 539.185 133.414 539.63 133.017C540.782 132.024 539.302 130.585 537.61 130.602Z" fill="#10173E"/>
<path d="M212.034 134.293L214.503 149.535L228.705 146.589L220.37 132.255L212.034 134.293Z" fill="#3F7BCF"/>
<path d="M197.356 152.002L191.354 129.166L196.083 127.623L204.934 152.002H197.356Z" fill="#3F7BCF"/>
<path d="M124.35 178.888C124.35 178.888 157.326 169.264 177.661 178.888C192.463 185.895 192.337 186.202 192.337 186.202L370.026 171.923L350.176 152.691C343.951 146.657 335.735 143.145 327.069 142.831C303.623 141.992 253.799 141.183 209.749 146.94C149.68 154.793 124.224 171.926 124.224 171.926L124.35 178.888Z" fill="#2C3A86"/>
<path d="M380.161 214.56L436.989 210.297C436.989 210.297 409.336 179.472 391.539 164.346C381.745 161.384 363.732 159.971 341.001 160.281C352.43 169.663 368.278 186.612 380.161 214.56Z" fill="#3F7BCF"/>
<path d="M124.153 233.751L380.158 214.553C368.275 186.609 352.427 169.664 340.998 160.282C301.373 160.828 247.383 166.657 197.357 178.889C150.76 190.284 124.153 233.751 124.153 233.751Z" fill="#1B54A3"/>
<path d="M245.218 188.878C180.693 201.837 183.787 224.515 183.787 224.515L353.755 214.973L326.945 177.4C300.522 179.578 271.77 183.544 245.218 188.878Z" fill="#10173E"/>
<path d="M436.989 210.297C436.989 210.297 408.964 180.717 406.536 178.516C394.892 175.919 377.197 175.076 356.439 175.697C365.153 186.472 375.274 202.703 381.431 213.416L436.989 210.297Z" fill="#10173E"/>
<path d="M356.439 175.697C347.134 175.977 337.221 176.554 326.949 177.4L353.758 214.972L381.431 213.416C375.271 202.703 365.153 186.468 356.439 175.697Z" fill="white"/>
<path d="M525.348 325.151C525.348 325.151 585.546 260.013 579.984 203.673C567.021 203.673 549.422 203.803 549.422 203.803L450.648 324.042L525.348 325.151Z" fill="#1B54A3"/>
<path d="M549.425 203.802C467.933 203.867 437.979 203.191 374.578 204.239C311.177 205.29 148.796 209.665 94.0069 245.75C78.0328 256.268 64.1622 270.903 54.5737 287.728C76.8513 273.872 103.206 259.633 129.879 250.111C214.567 219.887 492.939 222.088 492.939 222.088C492.939 222.088 484.604 258.961 469.787 291.206C464.679 302.318 457.446 314.482 450.839 324.768L496.641 324.727C496.641 324.727 536.463 273.578 549.425 203.802Z" fill="#3F7BCF"/>
<path d="M492.94 222.089C492.94 222.089 214.564 219.887 129.879 250.112C103.207 259.634 76.8554 273.872 54.5744 287.729C47.943 299.366 43.3398 312.035 41.5744 325.158L450.84 324.775C457.447 314.486 464.686 302.322 469.788 291.213C484.604 258.961 492.94 222.089 492.94 222.089Z" fill="#1B54A3"/>
<path d="M19.7239 303.363V306.066C19.7239 306.066 76.6133 306.066 100.865 306.066C125.116 306.066 177.914 306.066 177.914 306.066C177.914 306.066 145.406 293.605 30.3027 292.875C24.4909 292.841 19.7239 297.547 19.7239 303.363Z" fill="#10173E"/>
<path d="M532.369 260.535C532.369 260.535 463.573 309.636 389.22 313.427C322.797 316.816 90.1074 313.431 41.2188 312.67C36.2265 312.595 32.1596 316.615 32.1596 321.612V325.154H525.345L542.029 304.428C542.029 304.428 547.093 290.046 532.369 260.535Z" fill="#10173E"/>
<path d="M474.318 239.942C474.318 243.495 469.029 246.382 462.497 246.382C455.968 246.382 450.675 243.501 450.675 239.942C450.675 236.382 455.968 233.505 462.497 233.505C469.029 233.505 474.318 236.389 474.318 239.942Z" fill="white"/>
<path d="M427.831 239.942C427.831 243.495 422.538 246.382 416.009 246.382C409.477 246.382 404.187 243.501 404.187 239.942C404.187 236.382 409.477 233.505 416.009 233.505C422.538 233.505 427.831 236.389 427.831 239.942Z" fill="white"/>
<path d="M304.45 242.672C304.45 246.224 299.157 249.105 292.628 249.105C286.096 249.105 280.807 246.224 280.807 242.672C280.807 239.115 286.096 236.235 292.628 236.235C299.157 236.235 304.45 239.115 304.45 242.672Z" fill="white"/>
<path d="M345.659 242.672C345.659 246.224 340.366 249.105 333.834 249.105C327.305 249.105 322.012 246.224 322.012 242.672C322.012 239.115 327.305 236.235 333.834 236.235C340.366 236.235 345.659 239.115 345.659 242.672Z" fill="white"/>
<path d="M214.348 246.381C203.264 246.402 196.079 248.388 196.079 248.388V251.351V251.682V254.644C196.079 254.644 203.264 256.627 214.348 256.654C223.728 256.675 230.445 255.432 232.928 254.893V251.682V251.351V248.142C230.449 247.596 223.728 246.361 214.348 246.381Z" fill="#10173E"/>
<path d="M214.348 266.279C203.264 266.303 196.079 268.289 196.079 268.289V271.251V271.582V274.545C196.079 274.545 203.264 276.528 214.348 276.552C223.728 276.572 230.445 275.33 232.928 274.791V271.582V271.251V268.04C230.449 267.501 223.728 266.262 214.348 266.279Z" fill="#10173E"/>
<path d="M169.309 154.603C169.309 154.603 172.518 161.957 202.155 157.404C231.791 152.848 258.078 150.272 281.332 146.941C301.998 143.982 322.551 142.681 322.551 142.681C322.551 142.681 316.364 136.255 296.92 134.402C277.477 132.552 169.309 154.603 169.309 154.603Z" fill="#10173E"/>
<path d="M53.9789 288.1C53.9789 288.1 98.227 261.459 150.377 247.572C175.844 240.791 209.188 235.085 253.604 230.904C289.52 227.522 328.277 225.225 360.881 224.46C433.812 222.751 546.031 221.228 546.031 221.228L578.935 227.836L579.894 221.194L546.601 214.928C546.601 214.928 416.431 216.27 356.657 219.106C329.848 220.379 267.525 223.041 211.449 231.146C179.982 235.696 160.45 239.306 128.157 248.729C86.2378 260.961 58.9781 280.671 58.9781 280.671L53.9789 288.1Z" fill="#10173E"/>
<path d="M818.416 325.038H-214.416V341H818.416V325.038Z" fill="#64BDF4"/>
<path d="M207.12 36.1411H196.756C195.94 36.1411 195.144 36.2435 194.376 36.4175C193.454 28.7693 186.969 22.7728 179.081 22.7728H164.436C157.398 22.7728 151.484 27.5577 149.626 34.0114C149.281 33.9739 148.943 33.9056 148.588 33.9056H139.99C134.994 33.9056 130.906 37.9909 130.906 42.9873C130.906 44.0863 131.135 45.1306 131.497 46.1067H114.652C111.374 46.1067 108.69 48.7892 108.69 52.0655C108.69 55.3453 111.374 58.0278 114.652 58.0278H196.756H200.693H207.12C213.143 58.0278 218.071 53.1031 218.071 47.0794C218.071 41.0659 213.143 36.1411 207.12 36.1411Z" fill="#85CBFF"/>
<path d="M110.334 62.1151H98.5288C98.9796 61.04 99.2323 59.866 99.2323 58.6374C99.2323 53.6409 95.1448 49.5557 90.1491 49.5557H81.5509C81.1172 49.5557 80.6971 49.624 80.2806 49.6888C77.9654 44.2896 72.5873 40.4774 66.3622 40.4774H52.034C43.7089 40.4774 36.8897 47.2862 36.8897 55.6136C36.8897 57.9514 37.4735 60.1356 38.4297 62.1185H27.6528C24.5078 62.1185 21.9399 64.6884 21.9399 67.8316V68.9136C21.9399 72.0534 24.5078 74.6233 27.6528 74.6233H110.337C113.482 74.6233 116.05 72.0534 116.05 68.9136V67.8316C116.043 64.6849 113.472 62.1151 110.334 62.1151Z" fill="#57A9F2"/>
<path d="M463.558 22.7967H453.195C452.379 22.7967 451.586 22.9025 450.815 23.0766C449.893 15.4283 443.411 9.43192 435.523 9.43192H420.874C413.84 9.43192 407.926 14.2133 406.068 20.6705C405.72 20.6295 405.385 20.5647 405.03 20.5647H396.432C391.436 20.5647 387.349 24.6499 387.349 29.6464C387.349 30.7453 387.574 31.7896 387.939 32.7657H371.095C367.816 32.7657 365.132 35.4483 365.132 38.7247C365.132 42.001 367.816 44.6835 371.095 44.6835H453.198H457.135H463.569C469.589 44.6835 474.516 39.7587 474.516 33.7384C474.516 27.7215 469.582 22.7967 463.558 22.7967Z" fill="#85CBFF"/>
<path d="M573.997 70.4167H545.98C546.53 68.9287 546.878 67.3451 546.878 65.6762C546.878 58.086 540.666 51.8745 533.069 51.8745H523.374C520.506 42.1239 511.467 34.9467 500.82 34.9467H478.556C467.851 34.9467 458.781 42.1991 455.957 52.0247C455.462 51.9701 454.981 51.8745 454.472 51.8745H441.4C433.809 51.8745 427.595 58.086 427.595 65.6762C427.595 67.3451 427.94 68.9287 428.493 70.4167H402.896C397.91 70.4167 393.837 74.4951 393.837 79.4711C393.837 84.4539 397.914 88.5254 402.896 88.5254H443.234H533.649H573.987C578.973 88.5254 583.047 84.4505 583.047 79.4711C583.053 74.4883 578.976 70.4167 573.997 70.4167Z" fill="#57A9F2"/>
</svg>
