<svg width="153" height="32" viewBox="0 0 153 32" fill="none" xmlns="http://www.w3.org/2000/svg">
<path d="M28.9975 31.0286L28.9052 31.0751C28.1883 31.386 27.3582 31.195 26.8827 30.6098L18.7675 20.6491C18.3461 20.1323 17.6407 19.918 16.9756 20.1047L4.16145 23.7066C3.40936 23.9217 2.61559 23.6216 2.22833 22.9757C1.84108 22.3299 1.95749 21.5005 2.51185 20.9557L23.0793 0.691656C23.5288 0.18372 24.2385 -0.0256976 24.8876 0.158041C25.5367 0.341778 26.0022 0.883864 26.0739 1.53933L30.0197 29.251C30.1226 29.9887 29.7047 30.7155 28.9975 31.0286Z" fill="#EAEAEE"/>
<path d="M10.6314 8.42098L1.07984 18.1163" stroke="#EAEAEE" stroke-width="1.73545" stroke-linecap="round" stroke-linejoin="round"/>
<path d="M12.615 1.87588L3.18951 11.3035" stroke="#EAEAEE" stroke-width="1.73545" stroke-linecap="round" stroke-linejoin="round"/>
<path d="M50.8156 23.8738C46.0156 23.8738 43.0876 20.6098 43.0876 15.5938C43.0876 10.5778 46.0156 7.31379 50.8156 7.31379C55.6156 7.31379 58.5196 10.5778 58.5196 15.5938C58.5196 20.6098 55.6156 23.8738 50.8156 23.8738ZM50.8156 20.3938C53.5756 20.3938 54.6796 19.3618 54.6796 15.5938C54.6796 11.8258 53.5756 10.7938 50.8156 10.7938C48.0556 10.7938 46.9276 11.8258 46.9276 15.5938C46.9276 19.3618 48.0556 20.3938 50.8156 20.3938ZM64.9283 23.6338H61.3523V11.5618H64.6883V13.5058H64.8323C65.4323 12.2818 66.5123 11.3218 68.2163 11.3218C70.7363 11.3218 71.6723 13.1938 71.6723 15.6178V16.7218H68.0963V16.0738C68.0963 14.7778 67.6883 14.3698 66.5603 14.3698C65.4563 14.3698 64.9283 14.7538 64.9283 16.0738V23.6338ZM77.5836 23.6338H74.0076V11.5618H77.3436V13.6738H77.4876C78.1356 12.3058 79.4316 11.3218 81.5436 11.3218C84.6876 11.3218 86.0316 13.4098 86.0316 15.9778V23.6338H82.4316V16.6978C82.4316 15.0178 81.8796 14.4178 80.0556 14.4178C78.3276 14.4178 77.5836 14.9698 77.5836 16.7938V23.6338ZM92.3896 23.8738C90.2536 23.8738 88.5976 22.7458 88.5976 20.5618C88.5976 18.6898 89.9416 17.5378 92.4376 17.1538L96.5656 16.5298V16.1458C96.5656 14.7298 95.7976 14.4658 94.3816 14.4658C92.9176 14.4658 92.3416 14.8738 92.3416 16.0978V16.3618H88.9096V16.0978C88.9096 13.2178 91.1416 11.3218 94.5496 11.3218C98.1016 11.3218 99.9736 13.2658 99.9736 16.4818V23.6338H96.6376V22.0018H96.4936C95.8456 22.8898 94.6216 23.8738 92.3896 23.8738ZM92.0296 20.2738C92.0296 20.9218 92.5336 21.1378 93.5896 21.1378C95.0536 21.1378 96.5656 20.7538 96.5656 18.8818L93.1096 19.4098C92.3656 19.5298 92.0296 19.7698 92.0296 20.2738ZM106.692 23.6338H103.092V7.55379H108.156L110.964 15.0658L112.26 19.1938H112.5L113.772 15.0658L116.46 7.55379H121.524V23.6338H117.924V16.0258L118.116 12.9298H117.852L116.916 16.0738L114.492 22.5298H110.124L107.7 16.0738L106.74 12.9298H106.5L106.692 16.0258V23.6338ZM128.06 23.8738C125.924 23.8738 124.268 22.7458 124.268 20.5618C124.268 18.6898 125.612 17.5378 128.108 17.1538L132.236 16.5298V16.1458C132.236 14.7298 131.468 14.4658 130.052 14.4658C128.588 14.4658 128.012 14.8738 128.012 16.0978V16.3618H124.58V16.0978C124.58 13.2178 126.812 11.3218 130.22 11.3218C133.772 11.3218 135.644 13.2658 135.644 16.4818V23.6338H132.308V22.0018H132.164C131.516 22.8898 130.292 23.8738 128.06 23.8738ZM127.7 20.2738C127.7 20.9218 128.204 21.1378 129.26 21.1378C130.724 21.1378 132.236 20.7538 132.236 18.8818L128.78 19.4098C128.036 19.5298 127.7 19.7698 127.7 20.2738ZM142.122 27.6658H138.522V11.5618H141.858V13.3378H141.978C142.626 12.0418 144.018 11.3218 145.818 11.3218C149.226 11.3218 151.002 13.7938 151.002 17.6098C151.002 21.4018 149.154 23.8738 145.89 23.8738C143.97 23.8738 142.794 23.0818 142.242 22.0498H142.122V27.6658ZM142.122 18.5698C142.122 20.2018 143.058 20.8018 144.762 20.8018C146.85 20.8018 147.402 19.7938 147.402 17.6098C147.402 15.4018 146.85 14.3938 144.762 14.3938C143.058 14.3938 142.122 14.9938 142.122 16.6258V18.5698Z" fill="#EAEAEE"/>
</svg>
