<svg width="18" height="20" viewBox="0 0 18 20" fill="none" xmlns="http://www.w3.org/2000/svg">
<path d="M0.637078 1.43383L9.37708 10.0048L0.702078 18.6548C0.560152 18.47 0.44998 18.2628 0.376078 18.0418C0.337857 17.7916 0.337857 17.5371 0.376078 17.2868V2.56683C0.350078 2.17183 0.441078 1.77683 0.636078 1.43383M13.1421 6.26683L10.2891 9.09283L1.65308 0.599834C1.93308 0.502834 2.23308 0.475835 2.52608 0.521835C2.98608 0.647835 3.42508 0.841834 3.82808 1.09483L11.6441 5.41983C12.1521 5.69283 12.6471 5.97983 13.1421 6.26683ZM10.2901 10.9298L13.1291 13.7178L11.0711 14.8638L4.79208 18.3538C4.27208 18.6408 3.75008 18.9148 3.24208 19.2278C3.02471 19.3632 2.78096 19.4506 2.52712 19.4842C2.27328 19.5178 2.01519 19.4969 1.77008 19.4228L10.2901 10.9298ZM17.6501 10.0048C17.6574 10.3545 17.569 10.6995 17.3945 11.0027C17.2201 11.3058 16.9661 11.5555 16.6601 11.7248L14.3141 13.0268L11.2271 10.0048L14.3271 6.93083C15.1221 7.37383 15.9041 7.81683 16.6851 8.23383C16.9966 8.40793 17.2524 8.66664 17.423 8.98004C17.5936 9.29345 17.673 9.64874 17.6501 10.0048Z" fill="#F6F7F8"/>
</svg>
