<svg width="20" height="20" viewBox="0 0 20 20" fill="none" xmlns="http://www.w3.org/2000/svg">
<path fill-rule="evenodd" clip-rule="evenodd" d="M13.1042 18.3332V11.879H15.2709L15.5951 9.364H13.1034V7.75817C13.1034 7.02984 13.3059 6.53317 14.3509 6.53317H15.6826V4.28317C15.0377 4.21388 14.3895 4.1805 13.7409 4.18317C11.8209 4.18317 10.5067 5.35567 10.5067 7.50817V9.364H8.33341V11.879H10.5059V18.3332H2.58675C2.07841 18.3332 1.66675 17.9215 1.66675 17.4132V2.5865C1.66675 2.07817 2.07841 1.6665 2.58675 1.6665H17.4134C17.9217 1.6665 18.3334 2.07817 18.3334 2.5865V17.4132C18.3334 17.9215 17.9217 18.3332 17.4134 18.3332H13.1042Z" fill="#53557A"/>
</svg>
