<svg width="20" height="20" viewBox="0 0 20 20" fill="none" xmlns="http://www.w3.org/2000/svg">
<path d="M2.08325 10.0002C2.08325 6.2685 2.08325 4.40183 3.24242 3.24266C4.40159 2.0835 6.26742 2.0835 9.99992 2.0835C13.7316 2.0835 15.5983 2.0835 16.7574 3.24266C17.9166 4.40183 17.9166 6.26766 17.9166 10.0002C17.9166 13.7318 17.9166 15.5985 16.7574 16.7577C15.5983 17.9168 13.7324 17.9168 9.99992 17.9168C6.26825 17.9168 4.40159 17.9168 3.24242 16.7577C2.08325 15.5985 2.08325 13.7327 2.08325 10.0002Z" stroke="#53557A" stroke-width="1.5" stroke-linecap="round" stroke-linejoin="round"/>
<path d="M14.59 5.41699H14.5817M13.75 10.0003C13.75 10.9949 13.3549 11.9487 12.6516 12.652C11.9484 13.3552 10.9946 13.7503 10 13.7503C9.00544 13.7503 8.05161 13.3552 7.34835 12.652C6.64509 11.9487 6.25 10.9949 6.25 10.0003C6.25 9.00576 6.64509 8.05194 7.34835 7.34868C8.05161 6.64541 9.00544 6.25033 10 6.25033C10.9946 6.25033 11.9484 6.64541 12.6516 7.34868C13.3549 8.05194 13.75 9.00576 13.75 10.0003Z" stroke="#53557A" stroke-width="1.5" stroke-linecap="round" stroke-linejoin="round"/>
</svg>
