<svg width="20" height="20" viewBox="0 0 20 20" fill="none" xmlns="http://www.w3.org/2000/svg">
<g clip-path="url(#clip0_846_3342)">
<path d="M17.3809 0.3125H2.61906C1.34687 0.3125 0.3125 1.34719 0.3125 2.61906V17.3809C0.3125 18.6528 1.34719 19.6875 2.61906 19.6875H17.3809C18.6528 19.6875 19.6875 18.6528 19.6875 17.3809V2.61906C19.6875 1.34687 18.6528 0.3125 17.3809 0.3125ZM15.5384 8.765C15.4328 8.77542 15.3268 8.78083 15.2203 8.78125C14.6464 8.78137 14.0814 8.63856 13.5765 8.36572C13.0716 8.09288 12.6425 7.69859 12.3281 7.21844V12.5403C12.3282 13.3184 12.0975 14.079 11.6653 14.7259C11.2331 15.3729 10.6187 15.8771 9.8999 16.1749C9.18109 16.4727 8.39012 16.5506 7.62702 16.3988C6.86391 16.247 6.16296 15.8724 5.61279 15.3222C5.06263 14.772 4.68797 14.0711 4.5362 13.308C4.38442 12.5449 4.46235 11.7539 4.76012 11.0351C5.0579 10.3163 5.56215 9.70192 6.2091 9.2697C6.85605 8.83748 7.61664 8.60681 8.39469 8.60687C8.47688 8.60688 8.55719 8.61406 8.63781 8.61938V10.5578C8.55719 10.5481 8.47781 10.5334 8.39469 10.5334C8.13106 10.5334 7.87001 10.5854 7.62645 10.6862C7.38289 10.7871 7.16158 10.935 6.97517 11.1214C6.78876 11.3078 6.64089 11.5291 6.54 11.7727C6.43911 12.0163 6.38719 12.2773 6.38719 12.5409C6.38719 12.8046 6.43911 13.0656 6.54 13.3092C6.64089 13.5527 6.78876 13.774 6.97517 13.9605C7.16158 14.1469 7.38289 14.2947 7.62645 14.3956C7.87001 14.4965 8.13106 14.5484 8.39469 14.5484C9.50375 14.5484 10.4831 13.6747 10.4831 12.5659L10.5025 3.52688H12.3569C12.4416 4.3326 12.8069 5.08291 13.3888 5.6466C13.9708 6.2103 14.7323 6.55153 15.5403 6.61062V8.765" fill="#53557A"/>
</g>
<defs>
<clipPath id="clip0_846_3342">
<rect width="20" height="20" fill="white"/>
</clipPath>
</defs>
</svg>
