<svg width="108" height="20" viewBox="0 0 108 20" fill="none" xmlns="http://www.w3.org/2000/svg">
<g clip-path="url(#clip0_846_3337)">
<path d="M11.862 8.46875L19.1473 0H17.4207L11.0951 7.35313L6.04259 0H0.215088L7.8554 11.1194L0.215088 20H1.94165L8.62196 12.2348L13.9576 20H19.7851L11.8615 8.46875H11.862ZM9.49728 11.2172L8.72306 10.11L2.56368 1.29969H5.21556L10.186 8.41L10.9601 9.51719L17.4215 18.7594H14.7699L9.49728 11.2177V11.2172Z" fill="#53557A"/>
</g>
<path d="M30.64 15H28.608L32.256 9.656V9.528L28.608 4.28H30.672L33.584 8.456H33.712L36.592 4.28H38.624L34.976 9.528V9.656L38.624 15H36.56L33.648 10.728H33.536L30.64 15ZM47.8794 15.272L46.9994 16.152C45.4634 14.776 43.7994 12.76 43.7994 9.64C43.7994 6.52 45.4634 4.504 46.9994 3.128L47.8794 4.008C46.2634 5.736 45.6714 6.968 45.6714 9.64C45.6714 12.312 46.2634 13.544 47.8794 15.272ZM53.9316 15H52.2196V5.832H48.5716V4.28H57.5796V5.832H53.9316V15ZM62.1644 15H59.9084L57.9404 7.048H59.8124L60.7244 11.464L61.0444 13.56H61.1724L61.7004 11.464L63.0924 7.048H65.3324L66.7404 11.48L67.2364 13.56H67.3644L67.6844 11.48L68.6124 7.048H70.4044L68.4364 15H66.1964L64.7724 10.568L64.2444 8.568H64.1164L63.6044 10.568L62.1644 15ZM73.1734 6.04H71.4614L71.4454 4.28H73.1734V6.04ZM73.1894 15H71.4614V7H73.1894V15ZM78.3616 15C76.5856 15 75.6576 14.344 75.6576 12.552V8.488H74.3296V7.048H75.6896L76.0576 5.08H77.3856V7.048H79.7856V8.488H77.3856V12.472C77.3856 13.304 77.7376 13.448 78.8096 13.448H79.7856V14.856C79.4496 14.936 78.9056 15 78.3616 15ZM84.1973 15C82.4213 15 81.4933 14.344 81.4933 12.552V8.488H80.1653V7.048H81.5253L81.8933 5.08H83.2213V7.048H85.6213V8.488H83.2213V12.472C83.2213 13.304 83.5733 13.448 84.6453 13.448H85.6213V14.856C85.2853 14.936 84.7413 15 84.1973 15ZM90.3659 15.16C87.7419 15.16 86.5099 13.496 86.5099 11.016C86.5099 8.552 87.9819 6.888 90.3499 6.888C92.4939 6.888 93.9979 8.168 93.9979 10.344C93.9979 10.76 93.9499 11.192 93.9019 11.432H88.1259C88.1899 12.888 88.7179 13.624 90.3819 13.624C91.7099 13.624 92.2219 13.176 92.2219 12.456V12.328H93.9339V12.472C93.9339 14.104 92.5099 15.16 90.3659 15.16ZM90.3179 8.344C88.8139 8.344 88.2379 9.048 88.1419 10.28H92.3499C92.4139 8.92 91.6779 8.344 90.3179 8.344ZM97.4247 15H95.6967V7H97.2807V8.264H97.3607C97.6807 7.528 98.4167 6.888 99.5847 6.888C101.249 6.888 101.889 8.104 101.889 9.592V10.12H100.161V9.8C100.161 8.744 99.8567 8.36 98.8487 8.36C97.8087 8.36 97.4247 8.76 97.4247 9.816V15ZM102.516 4.008L103.396 3.128C104.932 4.504 106.596 6.52 106.596 9.64C106.596 12.76 104.932 14.776 103.396 16.152L102.516 15.272C104.132 13.544 104.724 12.312 104.724 9.64C104.724 6.968 104.132 5.736 102.516 4.008Z" fill="#53557A"/>
<defs>
<clipPath id="clip0_846_3337">
<rect width="20" height="20" fill="white"/>
</clipPath>
</defs>
</svg>
